#!OML:ASF H:\BabyWalks\Project 1\Capture day 1\Session 1\baby.ASF
:FULLY-SPECIFIED
:DEGREES
562
root 6.77288 17.12 13.129 -50.2981 82.2801 -57.1057
lowerback 20.3065 -2.11513 6.9272
upperback 4.99759 -0.482441 5.50153
thorax -5.94446 -0.10713 2.10679
lowerneck -5.87265 0.58495 5.31491
upperneck -1.59768 0.657493 -13.2256
head 0.577171 0.241105 -4.83646
rclavicle -2.3059e-014 3.33958e-014
rhumerus -52.1007 4.494 -73.1685
rradius 39.2245
rwrist 0.825085
rhand -3.86929 -17.3961
rfingers 7.12502
rthumb 21.8795 -46.179
lclavicle -2.3059e-014 3.33958e-014
lhumerus -45.7772 -9.88453 85.7464
lradius 68.2516
lwrist 0.626257
lhand -17.6999 9.98691
lfingers 7.12502
lthumb 8.55995 39.7934
rfemur -20.4864 5.48442 21.1526
rtibia 33.8255
rfoot -20.1294 2.55475
rtoes -3.05032
lfemur -23.3983 -4.0993 -9.37398
ltibia 65.7687
lfoot -4.30256 -35.4657
ltoes 4.1651
563
root 6.87954 17.0937 13.1729 -53.5805 81.8235 -60.3394
lowerback 20.5504 -2.00962 7.61918
upperback 5.13049 -0.123895 5.85123
thorax -5.92387 0.0764667 2.01103
lowerneck -5.6319 0.502668 5.69583
upperneck -2.18802 0.488615 -13.9181
head 0.357078 0.183264 -5.11939
rclavicle -5.1684e-015 -2.94201e-014
rhumerus -51.282 4.88494 -72.9811
rradius 38.7522
rwrist 1.301
rhand -4.00392 -17.5297
rfingers 7.12502
rthumb 21.7502 -46.3277
lclavicle -5.1684e-015 -2.94201e-014
lhumerus -46.4851 -9.12526 85.9608
lradius 66.3568
lwrist 0.0147038
lhand -18.0201 9.97057
lfingers 7.12502
lthumb 8.2509 39.7894
rfemur -20.0138 5.09697 22.0614
rtibia 33.8867
rfoot -20.5561 2.78023
rtoes -3.34127
lfemur -24.8614 -3.38869 -8.53015
ltibia 67.7918
lfoot -6.442 -34.3437
ltoes 2.4808
564
root 6.98749 17.0726 13.2147 -55.2062 81.4551 -61.955
lowerback 20.7877 -1.85865 8.07339
upperback 5.23645 0.236041 6.13108
thorax -5.92552 0.259378 1.97251
lowerneck -5.39728 0.451643 6.0718
upperneck -2.68357 0.365923 -14.5422
head 0.16864 0.146938 -5.38049
rclavicle 2.06736e-014 -5.725e-014
rhumerus -50.3991 5.24781 -72.767
rradius 38.2995
rwrist 1.9666
rhand -4.17463 -17.6808
rfingers 7.12502
rthumb 21.5863 -46.4977
lclavicle 2.06736e-014 -5.725e-014
lhumerus -47.2003 -8.36229 86.1215
lradius 64.3572
lwrist -0.542734
lhand -18.2063 9.83547
lfingers 7.12502
lthumb 8.07123 39.6613
rfemur -19.6084 4.83207 22.7365
rtibia 33.9629
rfoot -20.9888 2.97157
rtoes -3.53942
lfemur -26.2999 -2.60821 -7.95374
ltibia 69.5001
lfoot -8.49923 -33.074
ltoes 1.16542
565
root 7.09688 17.0567 13.2543 -55.5286 81.2053 -62.2987
lowerback 21.0219 -1.66428 8.30689
upperback 5.31693 0.59579 6.33447
thorax -5.95263 0.439897 1.9738
lowerneck -5.18506 0.420308 6.41932
upperneck -3.07005 0.277978 -15.0791
head 0.0177469 0.124578 -5.60999
rclavicle 2.38542e-015 3.97569e-015
rhumerus -49.4706 5.51556 -72.5085
rradius 37.8931
rwrist 2.79883
rhand -4.41507 -17.8481
rfingers 7.12502
rthumb 21.3553 -46.6914
lclavicle 2.38542e-015 3.97569e-015
lhumerus -47.9216 -7.63304 86.23
lradius 62.2787
lwrist -1.01988
lhand -18.2317 9.5781
lfingers 7.12502
lthumb 8.04669 39.4049
rfemur -19.2326 4.69667 23.1771
rtibia 33.9996
rfoot -21.3919 3.09881
rtoes -3.68365
lfemur -27.6989 -1.79174 -7.64919
ltibia 70.8576
lfoot -10.3447 -31.7444
ltoes 0.0891286
566
root 7.20755 17.0461 13.2921 -54.9063 81.0657 -61.7309
lowerback 21.2494 -1.43398 8.36611
upperback 5.37257 0.954385 6.46699
thorax -6.00452 0.617165 1.99448
lowerneck -4.99307 0.399858 6.72684
upperneck -3.36023 0.213845 -15.5249
head -0.100605 0.110597 -5.80447
rclavicle -2.38542e-014 -1.43125e-014
rhumerus -48.5173 5.63438 -72.1954
rradius 37.5634
rwrist 3.75895
rhand -4.79224 -18.0288
rfingers 7.12502
rthumb 20.993 -46.9126
lclavicle -2.38542e-014 -1.43125e-014
lhumerus -48.647 -6.9694 86.2939
lradius 60.1563
lwrist -1.39428
lhand -18.0735 9.21997
lfingers 7.12502
lthumb 8.19937 39.0409
rfemur -18.8878 4.691 23.4185
rtibia 34.0141
rfoot -21.7862 3.14559
rtoes -3.80557
lfemur -29.0699 -0.975217 -7.57871
ltibia 71.8735
lfoot -11.9687 -30.4262
ltoes -0.918903
567
root 7.32093 17.051 13.3278 -53.6482 80.995 -60.5567
lowerback 21.4694 -1.17883 8.31933
upperback 5.40879 1.31279 6.5402
thorax -6.07516 0.79188 2.00833
lowerneck -4.82253 0.383424 6.9964
upperneck -3.57207 0.163354 -15.8897
head -0.192293 0.100059 -5.96725
rclavicle -3.18055e-015 -1.90833e-014
rhumerus -47.5605 5.57113 -71.8311
rradius 37.3433
rwrist 4.77932
rhand -5.34877 -18.2427
rfingers 7.12502
rthumb 20.4583 -47.1849
lclavicle -3.18055e-015 -1.90833e-014
lhumerus -49.3752 -6.3929 86.3197
lradius 58.0238
lwrist -1.65149
lhand -17.7241 8.74936
lfingers 7.12502
lthumb 8.53657 38.5568
rfemur -18.5262 4.81216 23.526
rtibia 33.9532
rfoot -22.1609 3.10464
rtoes -3.93126
lfemur -30.3676 -0.192038 -7.67781
ltibia 72.5033
lfoot -13.358 -29.1861
ltoes -1.83316
568
root 7.43498 17.0532 13.3613 -51.9892 80.9648 -59.0044
lowerback 21.6777 -0.907585 8.21419
upperback 5.43313 1.67048 6.56548
thorax -6.15387 0.964425 2.00102
lowerneck -4.67922 0.36641 7.2368
upperneck -3.72396 0.118483 -16.192
head -0.262327 0.0891649 -6.10559
rclavicle -1.51076e-014 -4.45278e-014
rhumerus -46.6202 5.32686 -71.4332
rradius 37.25
rwrist 5.77839
rhand -6.16678 -18.4828
rfingers 7.12502
rthumb 19.672 -47.5074
lclavicle -1.51076e-014 -4.45278e-014
lhumerus -50.1051 -5.92323 86.3206
lradius 55.9235
lwrist -1.80023
lhand -17.1714 8.21593
lfingers 7.12502
lthumb 9.06998 38.0009
rfemur -18.16 5.04684 23.5396
rtibia 33.8205
rfoot -22.4955 2.97371
rtoes -4.05633
lfemur -31.656 0.52884 -7.88613
ltibia 72.8252
lfoot -14.5383 -28.0903
ltoes -2.62287
569
root 7.55067 17.0612 13.3929 -50.0735 80.9585 -57.2217
lowerback 21.8716 -0.626123 8.07375
upperback 5.44558 2.02567 6.5523
thorax -6.23886 1.13416 1.97055
lowerneck -4.5475 0.345014 7.45083
upperneck -3.84866 0.0712743 -16.4429
head -0.323591 0.0756873 -6.22334
rclavicle 1.66979e-014 3.33958e-014
rhumerus -45.7271 4.93123 -71.0314
rradius 37.3235
rwrist 6.63429
rhand -7.28321 -18.792
rfingers 7.12502
rthumb 18.5984 -47.9229
lclavicle 1.66979e-014 3.33958e-014
lhumerus -50.8444 -5.55911 86.3032
lradius 53.8978
lwrist -1.88244
lhand -16.3912 7.6642
lfingers 7.12502
lthumb 9.8227 37.4151
rfemur -17.7594 5.37531 23.4903
rtibia 33.5701
rfoot -22.7762 2.75925
rtoes -4.17583
lfemur -32.9038 1.16151 -8.17194
ltibia 72.807
lfoot -15.5386 -27.1505
ltoes -3.30893
570
root 7.66841 17.0747 13.4226 -48.0386 80.9619 -55.3462
lowerback 22.0415 -0.340412 7.91693
upperback 5.4514 2.37455 6.50921
thorax -6.31889 1.29987 1.91683
lowerneck -4.42103 0.320546 7.65188
upperneck -3.97161 0.0205039 -16.6601
head -0.384425 0.0601361 -6.32851
rclavicle -1.98785e-014 -3.49861e-014
rhumerus -44.9014 4.43026 -70.6609
rradius 37.5848
rwrist 7.25628
rhand -8.70805 -19.1881
rfingers 7.12502
rthumb 17.2275 -48.4445
lclavicle -1.98785e-014 -3.49861e-014
lhumerus -51.5949 -5.29281 86.2675
lradius 51.9861
lwrist -1.96093
lhand -15.3683 7.14489
lfingers 7.12502
lthumb 10.8095 36.8467
rfemur -17.3336 5.76962 23.4059
rtibia 33.2306
rfoot -23.0221 2.47421
rtoes -4.29624
lfemur -34.1086 1.68699 -8.49859
ltibia 72.4735
lfoot -16.3922 -26.3559
ltoes -3.83772
571
root 7.78838 17.0932 13.4507 -45.9762 80.9646 -53.4695
lowerback 22.1854 -0.0559005 7.75027
upperback 5.45119 2.71272 6.44578
thorax -6.3923 1.45975 1.84821
lowerneck -4.30644 0.294402 7.83538
upperneck -4.09856 -0.0324212 -16.8483
head -0.445135 0.0432767 -6.42171
rclavicle 1.59028e-015 -1.59028e-014
rhumerus -44.1614 3.90265 -70.361
rradius 38.0466
rwrist 7.5543
rhand -10.4522 -19.6863
rfingers 7.12502
rthumb 15.5482 -49.0812
lclavicle 1.59028e-015 -1.59028e-014
lhumerus -52.3605 -5.09852 86.2129
lradius 50.2115
lwrist -2.11464
lhand -14.1039 6.70613
lfingers 7.12502
lthumb 12.0289 36.3404
rfemur -16.8604 6.20241 23.3055
rtibia 32.7488
rfoot -23.2011 2.14366
rtoes -4.40728
lfemur -35.2615 2.09675 -8.83742
ltibia 71.8236
lfoot -17.1165 -25.6696
ltoes -4.27036
572
root 7.91133 17.1164 13.4773 -43.9629 80.9566 -51.6632
lowerback 22.2994 0.224288 7.58229
upperback 5.44878 3.03857 6.36888
thorax -6.45263 1.61352 1.76832
lowerneck -4.2121 0.270125 7.99785
upperneck -4.22356 -0.0821847 -17.0041
head -0.501914 0.0271362 -6.50104
rclavicle 7.95139e-015 4.77083e-015
rhumerus -43.5207 3.41669 -70.1592
rradius 38.72
rwrist 7.47384
rhand -12.4727 -20.2965
rfingers 7.12502
rthumb 13.6015 -49.8322
lclavicle 7.95139e-015 4.77083e-015
lhumerus -53.1454 -4.96326 86.138
lradius 48.5963
lwrist -2.41615
lhand -12.6159 6.37773
lfingers 7.12502
lthumb 13.4635 35.9226
rfemur -16.3275 6.64853 23.2068
rtibia 32.1167
rfoot -23.3138 1.79125
rtoes -4.50011
lfemur -36.3488 2.38233 -9.16096
ltibia 70.8743
lfoot -17.7368 -25.0454
ltoes -4.65041
